<svg width="56" height="56" viewBox="0 0 56 56" fill="none" xmlns="http://www.w3.org/2000/svg">
<path d="M28 56C43.464 56 56 43.464 56 28C56 12.536 43.464 0 28 0C12.536 0 0 12.536 0 28C0 43.464 12.536 56 28 56Z" fill="#0B0E11"/>
<path d="M20.1458 24.7724L28.0002 16.9181L35.8586 24.7765L40.4287 20.2061L28.0002 7.77734L15.5755 20.2021L20.1458 24.7724ZM12.3482 23.4289L16.9185 27.9992L12.348 32.5697L7.77783 27.9994L12.3482 23.4289ZM20.1458 31.2267L28.0002 39.0807L35.8584 31.2227L40.4312 35.7907L40.4287 35.793L28.0002 48.2218L15.5753 35.7971L15.5689 35.7908L20.1458 31.2267ZM48.2227 28L43.6525 32.5702L39.0823 28L43.6525 23.4298L48.2227 28Z" fill="#F0B90B"/>
<path d="M32.6354 27.9981H32.6375L27.9998 23.3604L23.3599 28.0003L23.3662 28.0068L27.9998 32.6404L32.6396 28.0003L32.6354 27.9981Z" fill="#F0B90B"/>
</svg>
