<svg width="34" height="34" viewBox="0 0 34 34" fill="none" xmlns="http://www.w3.org/2000/svg">
<circle cx="17" cy="17" r="17" fill="url(#paint0_linear_709_23505)"/>
<path d="M9.49228 16.3272L6.17028 19.6516C5.94324 19.8899 5.94324 20.2593 6.17028 20.4976L9.49228 23.822C9.86272 24.2033 10.508 23.9292 10.508 23.405V21.2602H17.6897C18.347 21.2602 18.8847 20.724 18.8847 20.0687C18.8847 19.4133 18.347 18.8771 17.6897 18.8771H10.508V16.7443C10.508 16.2081 9.86272 15.9459 9.49228 16.3272ZM26.8312 13.5024L23.5092 10.178C23.1388 9.79672 22.4935 10.0708 22.4935 10.595V12.7279H15.2998C14.6426 12.7279 14.1048 13.2641 14.1048 13.9194C14.1048 14.5748 14.6426 15.111 15.2998 15.111H22.4815V17.2438C22.4815 17.78 23.1268 18.0421 23.4972 17.6609L26.8192 14.3365C27.0582 14.1101 27.0582 13.7288 26.8312 13.5024Z" fill="white"/>
<defs>
<linearGradient id="paint0_linear_709_23505" x1="-1.5" y1="2" x2="17" y2="34" gradientUnits="userSpaceOnUse">
<stop stop-color="#80CAFF"/>
<stop offset="1" stop-color="#5A5DE0" stop-opacity="0.2"/>
</linearGradient>
</defs>
</svg>
