<svg width="76" height="76" viewBox="0 0 76 76" fill="none" xmlns="http://www.w3.org/2000/svg">
<g clip-path="url(#clip0_627_23443)">
<path d="M37.5 75C58.2107 75 75 58.2107 75 37.5C75 16.7893 58.2107 0 37.5 0C16.7893 0 0 16.7893 0 37.5C0 58.2107 16.7893 75 37.5 75Z" fill="#222C3B" stroke="#00F3AB" stroke-opacity="0.2"/>
<path fill-rule="evenodd" clip-rule="evenodd" d="M36.9998 18.8582C47.2645 18.8582 55.586 27.2379 55.586 37.5746C55.586 47.9115 47.2645 56.2911 36.9998 56.2911C26.7349 56.2911 18.4136 47.9115 18.4136 37.5746C18.4136 27.2379 26.7349 18.8582 36.9998 18.8582Z" fill="url(#paint0_linear_627_23443)" fill-opacity="0.2"/>
<path fill-rule="evenodd" clip-rule="evenodd" d="M37.4083 11.0165C37.1537 10.7785 37.0224 10.774 37.0005 10.774C36.9783 10.774 36.847 10.7785 36.5927 11.0165C36.3315 11.2607 36.0194 11.6822 35.683 12.3325C35.0116 13.6305 34.3691 15.5924 33.8153 18.124C33.1926 20.9708 32.7003 24.4504 32.3898 28.3456C33.8894 29.0831 35.4314 29.8848 37 30.7457C38.5687 29.8847 40.1111 29.0828 41.6109 28.3452C41.3004 24.4502 40.8082 20.9707 40.1854 18.124C39.6316 15.5924 38.9891 13.6305 38.3177 12.3325C37.9816 11.6822 37.6692 11.2607 37.4083 11.0165ZM35.6876 31.4764C34.5357 30.8542 33.4009 30.2657 32.2896 29.7128C32.2053 30.9668 32.1398 32.2594 32.0941 33.5838C32.6818 33.2262 33.2781 32.8696 33.8824 32.5153C34.4867 32.1609 35.0889 31.8145 35.6876 31.4764ZM31.1801 27.7601C32.0799 17.079 34.3466 9.5 37.0005 9.5C39.6541 9.5 41.9205 17.0788 42.8206 27.7598C52.3766 23.2111 59.9711 21.4157 61.2982 23.7502C62.625 26.0847 57.2969 31.868 48.6406 38C57.2969 44.1323 62.625 49.9153 61.2982 52.2499C59.9711 54.5845 52.3766 52.7891 42.8206 48.2403C41.9205 58.9213 39.6541 66.5 37.0005 66.5C34.3466 66.5 32.0799 58.9211 31.1801 48.24C21.6237 52.7888 14.0288 54.5845 12.7018 52.2499C11.375 49.9153 16.7031 44.1323 25.3593 38C16.7031 31.868 11.375 26.0847 12.7018 23.7502C14.0288 21.4156 21.6237 23.2112 31.1801 27.7601ZM26.4638 37.2282C23.2979 35.0074 20.5771 32.8345 18.4612 30.8631C16.5797 29.1101 15.2283 27.5638 14.4573 26.3242C14.0711 25.7031 13.8679 25.2179 13.7902 24.8661C13.7146 24.5236 13.7764 24.4064 13.7871 24.3875C13.798 24.3685 13.8673 24.2552 14.1975 24.1503C14.5365 24.0427 15.0521 23.9788 15.7749 24.0081C17.2174 24.0665 19.2116 24.4822 21.6469 25.2608C24.3855 26.1364 27.5982 27.4433 31.0744 29.1178C30.9534 30.8054 30.8659 32.5625 30.8156 34.3726C29.2972 35.3222 27.8425 36.2778 26.4638 37.2282ZM26.4638 38.7719C23.2979 40.9926 20.5771 43.1655 18.4612 45.1371C16.5797 46.8901 15.2283 48.4362 14.4573 49.6758C14.0711 50.2969 13.8679 50.7823 13.7902 51.1339C13.7146 51.4764 13.7764 51.5938 13.7871 51.6126C13.7979 51.6316 13.8672 51.7449 14.1975 51.8498C14.5365 51.9574 15.0521 52.0213 15.7749 51.992C17.2174 51.9335 19.2116 51.518 21.6469 50.7393C24.3855 49.8636 27.5982 48.5569 31.0744 46.8824C30.9534 45.1947 30.8659 43.4376 30.8156 41.6275C29.2972 40.6779 27.8425 39.7223 26.4638 38.7719ZM30.7824 40.1077C29.6758 39.4054 28.6064 38.7012 27.5792 38C28.6064 37.2988 29.6758 36.5947 30.7824 35.8924C30.7713 36.5884 30.7656 37.2912 30.7656 38C30.7656 38.7088 30.7713 39.412 30.7824 40.1077ZM32.0513 40.9021C32.0299 39.9487 32.019 38.9806 32.019 38C32.019 37.0197 32.0299 36.0514 32.0513 35.0979C32.8535 34.6025 33.6733 34.1089 34.5089 33.6186C35.3451 33.1283 36.1761 32.6538 37 32.1957C37.8238 32.6538 38.6548 33.1283 39.491 33.6186C40.3271 34.1089 41.1472 34.6028 41.9494 35.0985C41.9708 36.0516 41.9817 37.0197 41.9817 38C41.9817 38.9804 41.9708 39.9485 41.9494 40.9016C41.1472 41.3973 40.3271 41.8912 39.491 42.3815C38.6548 42.8717 37.8238 43.3463 37 43.8045C36.1761 43.3463 35.3451 42.8717 34.5089 42.3815C33.6733 41.8912 32.8535 41.3976 32.0513 40.9021ZM32.0941 42.4162C32.1398 43.7406 32.2053 45.0332 32.2896 46.2872C33.4009 45.7344 34.5357 45.1458 35.6876 44.5236C35.0889 44.1855 34.4867 43.8393 33.8824 43.4849C33.2781 43.1305 32.6818 42.7739 32.0941 42.4162ZM37 45.2545C35.4314 46.1152 33.8894 46.917 32.3898 47.6546C32.7003 51.5498 33.1926 55.0294 33.8153 57.8761C34.3691 60.4077 35.0116 62.3697 35.683 63.6678C36.0194 64.3179 36.3315 64.7394 36.5927 64.9837C36.847 65.2215 36.9783 65.2262 37.0005 65.2262C37.0224 65.2262 37.1537 65.2215 37.4083 64.9837C37.6692 64.7394 37.9816 64.3179 38.3177 63.6678C38.9891 62.3697 39.6316 60.4077 40.1854 57.8761C40.8082 55.0294 41.3004 51.5498 41.6109 47.6549C40.1111 46.9172 38.5687 46.1155 37 45.2545ZM42.9264 46.8827C46.4023 48.5569 49.6147 49.8639 52.3531 50.7393C54.7885 51.518 56.7825 51.9335 58.225 51.992C58.9478 52.0213 59.4633 51.9574 59.8024 51.8498C60.1329 51.7449 60.2021 51.6316 60.2128 51.6126C60.2235 51.5938 60.2853 51.4767 60.2096 51.1339C60.1321 50.7823 59.9289 50.2969 59.5427 49.6758C58.7716 48.4362 57.4202 46.8901 55.5388 45.1371C53.4229 43.1655 50.702 40.9926 47.536 38.7719C46.1576 39.7221 44.7033 40.6776 43.185 41.627C43.1347 43.4373 43.0473 45.1949 42.9264 46.8827ZM47.536 37.2282C50.702 35.0074 53.4229 32.8345 55.5388 30.8631C57.4202 29.1101 58.7716 27.5638 59.5427 26.3242C59.9289 25.7031 60.1321 25.2179 60.2096 24.8661C60.2853 24.5235 60.2235 24.4063 60.2128 24.3875C60.2021 24.3685 60.1329 24.2553 59.8024 24.1503C59.4633 24.0427 58.9478 23.9788 58.225 24.0081C56.7825 24.0665 54.7885 24.4822 52.3531 25.2608C49.6147 26.1363 46.4023 27.4431 42.9264 29.1174C43.0473 30.8053 43.1347 32.5627 43.185 34.3731C44.7033 35.3224 46.1576 36.278 47.536 37.2282ZM43.2184 35.8929C44.3246 36.5949 45.3937 37.2991 46.4207 38C45.3937 38.701 44.3246 39.4052 43.2184 40.1072C43.2294 39.4114 43.235 38.7088 43.235 38C43.235 37.2912 43.2294 36.5887 43.2184 35.8929ZM41.9066 33.5844C41.8612 32.2596 41.7954 30.9667 41.7111 29.7124C40.5996 30.2655 39.4645 30.8541 38.3123 31.4764C38.9113 31.8145 39.5132 32.1609 40.1175 32.5153C40.7221 32.8699 41.3186 33.2264 41.9066 33.5844ZM41.7111 46.2878C40.5996 45.7347 39.4645 45.146 38.3123 44.5236C38.9113 44.1855 39.5132 43.8393 40.1175 43.4849C40.7221 43.1302 41.3186 42.7736 41.9066 42.4157C41.8612 43.7406 41.7954 45.0335 41.7111 46.2878Z" fill="url(#paint1_linear_627_23443)"/>
<path fill-rule="evenodd" clip-rule="evenodd" d="M19.6809 29.9179C20.8474 29.9179 21.793 30.8701 21.793 32.0447C21.793 33.2194 20.8474 34.1716 19.6809 34.1716C18.5144 34.1716 17.5688 33.2194 17.5688 32.0447C17.5688 30.8701 18.5144 29.9179 19.6809 29.9179Z" fill="url(#paint2_linear_627_23443)"/>
<path fill-rule="evenodd" clip-rule="evenodd" d="M50.9397 22.2612C52.1062 22.2612 53.0518 23.2134 53.0518 24.3881C53.0518 25.5627 52.1062 26.5149 50.9397 26.5149C49.7732 26.5149 48.8276 25.5627 48.8276 24.3881C48.8276 23.2134 49.7732 22.2612 50.9397 22.2612Z" fill="url(#paint3_linear_627_23443)"/>
<path fill-rule="evenodd" clip-rule="evenodd" d="M33.1986 53.7388C34.365 53.7388 35.3106 54.6909 35.3106 55.8657C35.3106 57.0401 34.365 57.9925 33.1986 57.9925C32.032 57.9925 31.0864 57.0401 31.0864 55.8657C31.0864 54.6909 32.032 53.7388 33.1986 53.7388Z" fill="url(#paint4_linear_627_23443)"/>
<path fill-rule="evenodd" clip-rule="evenodd" d="M36.9998 34.1716C38.8663 34.1716 40.3792 35.6952 40.3792 37.5745C40.3792 39.4541 38.8663 40.9776 36.9998 40.9776C35.1335 40.9776 33.6206 39.4541 33.6206 37.5745C33.6206 35.6952 35.1335 34.1716 36.9998 34.1716Z" fill="url(#paint5_linear_627_23443)"/>
<circle cx="13" cy="13" r="8" fill="url(#paint6_linear_627_23443)"/>
<path d="M13.6074 11.2168V17H11.6387V9.60352H13.4912L13.6074 11.2168ZM15.8359 9.55566L15.8018 11.3809C15.7061 11.3672 15.5898 11.3558 15.4531 11.3467C15.321 11.333 15.2002 11.3262 15.0908 11.3262C14.8128 11.3262 14.5713 11.3626 14.3662 11.4355C14.1657 11.5039 13.9971 11.6064 13.8604 11.7432C13.7282 11.8799 13.6279 12.0462 13.5596 12.2422C13.4958 12.4382 13.4593 12.6615 13.4502 12.9121L13.0537 12.7891C13.0537 12.3105 13.1016 11.8708 13.1973 11.4697C13.293 11.0641 13.432 10.7109 13.6143 10.4102C13.8011 10.1094 14.029 9.87695 14.2979 9.71289C14.5667 9.54883 14.8743 9.4668 15.2207 9.4668C15.3301 9.4668 15.4417 9.47591 15.5557 9.49414C15.6696 9.50781 15.763 9.52832 15.8359 9.55566Z" fill="black"/>
</g>
<defs>
<linearGradient id="paint0_linear_627_23443" x1="2463.53" y1="3483.66" x2="419.452" y2="31.3283" gradientUnits="userSpaceOnUse">
<stop stop-color="#000A17"/>
<stop offset="1" stop-color="#00554F"/>
</linearGradient>
<linearGradient id="paint1_linear_627_23443" x1="37" y1="2" x2="51.0431" y2="66.1144" gradientUnits="userSpaceOnUse">
<stop stop-color="#85E0A3"/>
<stop offset="1" stop-color="#80CAFF"/>
</linearGradient>
<linearGradient id="paint2_linear_627_23443" x1="253.433" y1="423.645" x2="167.241" y2="30.1679" gradientUnits="userSpaceOnUse">
<stop stop-color="#85E0A3"/>
<stop offset="1" stop-color="#80CAFF"/>
</linearGradient>
<linearGradient id="paint3_linear_627_23443" x1="284.692" y1="415.988" x2="198.499" y2="22.5112" gradientUnits="userSpaceOnUse">
<stop stop-color="#85E0A3"/>
<stop offset="1" stop-color="#80CAFF"/>
</linearGradient>
<linearGradient id="paint4_linear_627_23443" x1="266.951" y1="447.466" x2="180.758" y2="53.9887" gradientUnits="userSpaceOnUse">
<stop stop-color="#85E0A3"/>
<stop offset="1" stop-color="#80CAFF"/>
</linearGradient>
<linearGradient id="paint5_linear_627_23443" x1="411.003" y1="664.135" x2="273.095" y2="34.5715" gradientUnits="userSpaceOnUse">
<stop stop-color="#85E0A3"/>
<stop offset="1" stop-color="#80CAFF"/>
</linearGradient>
<linearGradient id="paint6_linear_627_23443" x1="7.85714" y1="5" x2="18.1429" y2="18.1429" gradientUnits="userSpaceOnUse">
<stop stop-color="#85E0A3"/>
<stop offset="1" stop-color="#80CAFF"/>
</linearGradient>
<clipPath id="clip0_627_23443">
<rect width="76" height="76" fill="white"/>
</clipPath>
</defs>
</svg>
